<svg class="border shadow-md" viewBox="0 0 259.875 462" xmlns="http://www.w3.org/2000/svg" preserveAspectRatio="none" style="width: 259.875px; height: 462px;"><rect class="bg" id="bg" x="0" y="0" width="259.875" height="462" fill="#000000"/><g transform="rotate(18 129.9375 231)"><path d="M -154.00 302.00 S -144.00 285.00&#10;            0.00 302.00 9.00 205.00&#10;            154.00 302.00 221.00 270.00&#10;            308.00 302.00 374.00 283.00&#10;            462.00 302.00 494.00 169.00&#10;            616.00 302.00 h 110 V 1062 H -154.00 Z" fill="#000000"/><path d="M -154.00 185.00 S -87.00 102.50&#10;            0.00 185.00 67.00 92.00&#10;            154.00 185.00 221.00 38.00&#10;            308.00 185.00 375.00 102.50&#10;            462.00 185.00 527.00 37.00&#10;            616.00 185.00 h 110 V -600 H -154.00 Z" fill="#073B3B"/></g></svg>